<?xml version="1.0" encoding="utf-8"?>
<svg version="1.1" xmlns:xlink="http://www.w3.org/1999/xlink" width="30px" height="24px" xmlns="http://www.w3.org/2000/svg">
  <g transform="matrix(1 0 0 1 -27 -83 )">
    <path d="M 9.125 4.875  C 9.708333333333334 5.458333333333331  10 6.166666666666663  10 6.999999999999999  C 10 7.833333333333332  9.708333333333334 8.541666666666668  9.125 9.125  C 8.541666666666668 9.708333333333336  7.833333333333334 10  7 10  C 6.166666666666667 10  5.458333333333334 9.708333333333336  4.875 9.125  C 4.291666666666667 8.541666666666668  4 7.833333333333332  4 6.999999999999999  C 4 6.166666666666663  4.291666666666667 5.458333333333331  4.875 4.875  C 5.458333333333334 4.291666666666663  6.166666666666667 3.999999999999999  7 3.999999999999999  C 7.833333333333334 3.999999999999999  8.541666666666668 4.291666666666663  9.125 4.875  Z M 19.5 6.500000000000001  L 26 13.000000000000002  L 26 20  L 4 20  L 4 17  L 9 12  L 11.5 14.500000000000002  L 19.5 6.500000000000001  Z M 27.8515625 2.148437499999999  C 27.75260416666667 2.0494791666666643  27.63541666666667 2.000000000000001  27.5 2  L 2.5 2  C 2.3645833333333335 2.000000000000001  2.2473958333333335 2.0494791666666643  2.1484375 2.148437499999999  C 2.049479166666667 2.2473958333333313  2 2.3645833333333313  2 2.499999999999999  L 2 21.5  C 2 21.635416666666668  2.049479166666667 21.752604166666668  2.1484375 21.8515625  C 2.2473958333333335 21.950520833333332  2.3645833333333335 22  2.5 22  L 27.5 22  C 27.63541666666667 22  27.75260416666667 21.950520833333332  27.8515625 21.8515625  C 27.950520833333336 21.752604166666668  28 21.635416666666668  28 21.5  L 28 2.499999999999999  C 28 2.3645833333333313  27.950520833333336 2.2473958333333313  27.8515625 2.148437499999999  Z M 29.265625 0.7343750000000009  C 29.755208333333336 1.2239583333333321  30.000000000000007 1.8125000000000009  30 2.499999999999999  L 30 21.5  C 30.000000000000007 22.1875  29.755208333333336 22.776041666666668  29.265625 23.265625  C 28.776041666666668 23.755208333333332  28.1875 24  27.5 24  L 2.5 24  C 1.8125 24  1.2239583333333335 23.755208333333332  0.734375 23.265625  C 0.24479166666666669 22.776041666666668  0 22.1875  0 21.5  L 0 2.499999999999999  C 0 1.8125000000000009  0.24479166666666669 1.2239583333333321  0.734375 0.7343750000000009  C 1.2239583333333335 0.2447916666666643  1.8125 0  2.5 0  L 27.5 0  C 28.1875 0  28.776041666666668 0.2447916666666643  29.265625 0.7343750000000009  Z " fill-rule="nonzero" fill="#ffffff" stroke="none" fill-opacity="0.49019607843137253" transform="matrix(1 0 0 1 27 83 )" />
  </g>
</svg>