<?xml version="1.0" encoding="UTF-8"?><svg id="Camada_2" xmlns="http://www.w3.org/2000/svg" viewBox="0 0 298.17 600.5"><defs><style>.cls-1{fill:#004b52;}</style></defs><path class="cls-1" d="M277.74,2.62c-4.59-1.81-9.52-2.62-14.45-2.62H35.46C27.06,0,18.83,2.9,12.59,8.53c-4.17,3.77-8.03,9.14-10.1,16.79-.93,3.42-1.31,6.96-1.32,10.51L.18,559.62c-.01,5.8-.8,12.37,.99,17.88,2.8,8.61,7.63,16.17,18.31,20.6,4.03,1.67,8.38,2.4,12.74,2.4H255.35c12.36,0,24.39-4.59,33.23-13.22,5.66-5.53,9.6-12.39,9.6-27.78V30.92s0-20.23-20.43-28.3Zm1.49,32.3s0,.03,0,.04l-.05,530.53c.39,4.71-1.37,8.19-3.65,10.68-3.2,3.49-7.84,5.32-12.57,5.32H36.17c-15,0-15-13-15-13V34.25c0-.5-.02-1-.05-1.5,0-.12-.01-.23-.02-.34-.31-7.19,5.64-13.11,12.83-13.08l40.86,.18c4.38,0,4.38,4,4.38,4,0,1.88,.2,3.51,.54,4.92,1.29,5.39,6.27,9.08,11.8,9.08h117.46c1.69,0,3.37-.38,4.85-1.19,8.18-4.5,7.35-12.81,7.35-12.81,0-4,4.1-4,4.1-4h40.9c14.69,0,13.13,14.82,13.06,15.42Z"/></svg>