<?xml version="1.0" encoding="utf-8"?>
<svg version="1.1" xmlns:xlink="http://www.w3.org/1999/xlink" width="33px" height="28px" xmlns="http://www.w3.org/2000/svg">
  <g transform="matrix(1 0 0 1 -71 -1617 )">
    <path d="M 23.525390625 3.6002604166666656  C 21.34626116071429 2.7556423611111094  19.004464285714285 2.3333333333333344  16.5 2.3333333333333344  C 13.995535714285714 2.3333333333333344  11.653738839285715 2.7556423611111094  9.474609375 3.6002604166666656  C 7.295479910714286 4.444878472222221  5.564453125000001 5.5842013888888875  4.281529017857143 7.018229166666666  C 2.998604910714286 8.452256944444441  2.357142857142857 10.001736111111109  2.357142857142857 11.666666666666666  C 2.357142857142857 13.027777777777779  2.7960379464285716 14.325086805555557  3.673828125 15.55859375  C 4.551618303571429 16.792100694444443  5.788504464285715 17.858506944444443  7.384486607142857 18.7578125  L 8.986607142857142 19.669270833333332  L 8.489397321428571 21.419270833333336  C 8.194754464285714 22.525173611111114  7.765066964285714 23.5703125  7.200334821428571 24.5546875  C 9.066406250000002 23.7890625  10.754464285714286 22.75  12.264508928571429 21.4375  L 13.056361607142858 20.744791666666668  L 14.106026785714286 20.854166666666668  C 14.953125 20.951388888888886  15.751116071428571 21  16.5 21  C 19.004464285714285 21  21.34626116071429 20.577690972222218  23.525390625 19.733072916666668  C 25.704520089285715 18.888454861111107  27.435546875 17.749131944444443  28.718470982142858 16.315104166666668  C 30.001395089285715 14.881076388888888  30.642857142857142 13.331597222222221  30.642857142857142 11.666666666666666  C 30.642857142857142 10.001736111111109  30.001395089285715 8.452256944444441  28.718470982142858 7.018229166666666  C 27.435546875 5.5842013888888875  25.704520089285715 4.444878472222221  23.525390625 3.6002604166666656  Z M 30.790178571428573 5.805989583333334  C 32.263392857142854 7.598524305555554  33 9.552083333333334  33 11.666666666666666  C 33 13.78125  32.263392857142854 15.734809027777775  30.790178571428573 17.52734375  C 29.316964285714285 19.319878472222218  27.315848214285715 20.735677083333332  24.786830357142858 21.774739583333336  C 22.257812500000004 22.813802083333336  19.495535714285715 23.333333333333336  16.5 23.333333333333336  C 15.640625000000002 23.333333333333336  14.750558035714286 23.28472222222222  13.829799107142858 23.1875  C 11.398995535714286 25.314236111111114  8.575334821428573 26.78472222222222  5.358816964285714 27.598958333333336  C 4.757254464285715 27.76909722222222  4.057477678571429 27.90277777777778  3.259486607142857 28  L 3.1674107142857144 28  C 2.9832589285714284 28  2.8175223214285716 27.936197916666664  2.670200892857143 27.80859375  C 2.5228794642857144 27.680989583333336  2.4246651785714293 27.513888888888886  2.3755580357142856 27.307291666666664  L 2.3755580357142856 27.2890625  C 2.338727678571429 27.24045138888889  2.335658482142857 27.167534722222225  2.3663504464285716 27.0703125  C 2.397042410714286 26.97309027777778  2.4093191964285716 26.912326388888886  2.4031808035714284 26.888020833333336  C 2.397042410714286 26.86371527777778  2.4246651785714293 26.805989583333336  2.486049107142857 26.71484375  L 2.5965401785714284 26.55078125  C 2.5965401785714284 26.55078125  2.639508928571429 26.499131944444446  2.7254464285714284 26.395833333333336  C 2.8113839285714293 26.29253472222222  2.8604910714285716 26.23784722222222  2.872767857142857 26.231770833333336  C 2.9587053571428577 26.134548611111114  3.1489955357142856 25.924913194444446  3.443638392857143 25.602864583333336  C 3.73828125 25.28081597222222  3.9500558035714284 25.049913194444446  4.078962053571429 24.91015625  C 4.207868303571429 24.770399305555554  4.398158482142858 24.530381944444446  4.649832589285714 24.190104166666664  C 4.901506696428572 23.849826388888886  5.101004464285714 23.539930555555554  5.248325892857143 23.260416666666664  C 5.395647321428571 22.98090277777778  5.561383928571429 22.622395833333336  5.745535714285714 22.184895833333336  C 5.9296875 21.747395833333336  6.089285714285714 21.28559027777778  6.224330357142857 20.799479166666668  C 4.296875 19.717881944444443  2.777622767857143 18.381076388888886  1.6665736607142858 16.7890625  C 0.5555245535714285 15.197048611111107  0 13.489583333333334  0 11.666666666666666  C 0 9.552083333333334  0.7366071428571429 7.598524305555554  2.2098214285714284 5.805989583333334  C 3.683035714285715 4.013454861111109  5.684151785714286 2.59765625  8.213169642857142 1.55859375  C 10.742187500000002 0.51953125  13.504464285714286 0  16.5 0  C 19.495535714285715 0  22.257812500000004 0.51953125  24.786830357142858 1.55859375  C 27.315848214285715 2.59765625  29.316964285714285 4.013454861111109  30.790178571428573 5.805989583333334  Z " fill-rule="nonzero" fill="#000000" stroke="none" transform="matrix(1 0 0 1 71 1617 )" />
  </g>
</svg>