<?xml version="1.0" encoding="utf-8"?>
<svg version="1.1" xmlns:xlink="http://www.w3.org/1999/xlink" width="28px" height="28px" xmlns="http://www.w3.org/2000/svg">
  <g transform="matrix(1 0 0 1 -194 -348 )">
    <path d="M 26.691218130311615 0  C 27.246458923512748 0  27.636449480642113 0.2585227272727284  27.86118980169972 0.7755681818181821  C 28.085930122757322 1.319128787878785  27.99338999055713 1.7831439393939372  27.58356940509915 2.167613636363636  L 17.807365439093484 11.97159090909091  L 17.807365439093484 26.727272727272727  C 17.807365439093484 27.28409090909091  17.54957507082153 27.675189393939394  17.033994334277622 27.900568181818183  C 16.862134088762986 27.96685606060606  16.69688385269122 28  16.538243626062325 28  C 16.18130311614731 28  15.88385269121813 27.87405303030303  15.645892351274789 27.62215909090909  L 10.56940509915014 22.53125  C 10.318224740321057 22.27935606060606  10.192634560906516 21.981060606060602  10.192634560906516 21.636363636363637  L 10.192634560906516 11.97159090909091  L 0.4164305949008499 2.167613636363636  C 0.006610009442870627 1.7831439393939372  -0.08593012275731823 1.319128787878785  0.1388101983002833 0.7755681818181821  C 0.36355051935788485 0.2585227272727284  0.7535410764872521 0  1.3087818696883853 0  L 26.691218130311615 0  Z " fill-rule="nonzero" fill="#797979" stroke="none" fill-opacity="0.4980392156862745" transform="matrix(1 0 0 1 194 348 )" />
  </g>
</svg>