<?xml version="1.0" encoding="utf-8"?>
<svg version="1.1" xmlns:xlink="http://www.w3.org/1999/xlink" width="33px" height="28px" xmlns="http://www.w3.org/2000/svg">
  <g transform="matrix(1 0 0 1 -24 -1617 )">
    <path d="M 17.310267857142858 27.671875  C 17.089285714285715 27.890625  16.81919642857143 28  16.5 28  C 16.180803571428573 28  15.910714285714288 27.890625  15.689732142857142 27.671875  L 4.198660714285714 16.697916666666668  C 4.075892857142858 16.600694444444443  3.9070870535714293 16.442708333333332  3.6922433035714284 16.223958333333332  C 3.477399553571429 16.005208333333332  3.1367187500000004 15.607204861111112  2.670200892857143 15.029947916666668  C 2.2036830357142856 14.452690972222218  1.7862723214285714 13.860243055555554  1.41796875 13.252604166666666  C 1.0496651785714286 12.644965277777779  0.7212611607142858 11.909722222222221  0.43275669642857145 11.046875  C 0.14425223214285715 10.184027777777775  0 9.345486111111109  0 8.53125  C 0 5.8576388888888875  0.7795758928571427 3.7673611111111094  2.3387276785714284 2.2604166666666656  C 3.8978794642857144 0.7534722222222219  6.052455357142857 0  8.802455357142858 0  C 9.563616071428571 0  10.340122767857142 0.13064236111110938  11.131975446428571 0.39192708333333437  C 11.923828125 0.6532118055555531  12.660435267857142 1.0056423611111094  13.341796875 1.44921875  C 14.02315848214286 1.8927951388888875  14.609375000000004 2.309027777777775  15.100446428571429 2.6979166666666656  C 15.591517857142858 3.086805555555553  16.058035714285715 3.5  16.5 3.9375  C 16.941964285714285 3.5  17.408482142857146 3.086805555555553  17.899553571428573 2.6979166666666656  C 18.390625000000004 2.309027777777775  18.976841517857142 1.8927951388888875  19.658203125 1.44921875  C 20.339564732142858 1.0056423611111094  21.076171875 0.6532118055555531  21.868024553571427 0.39192708333333437  C 22.659877232142858 0.13064236111110938  23.43638392857143 0  24.197544642857142 0  C 26.947544642857146 0  29.10212053571429 0.7534722222222219  30.661272321428573 2.2604166666666656  C 32.22042410714286 3.7673611111111094  33 5.8576388888888875  33 8.53125  C 33 11.217013888888888  31.59430803571429 13.951388888888888  28.782924107142858 16.734375  L 17.310267857142858 27.671875  Z " fill-rule="nonzero" fill="#025454" stroke="none" transform="matrix(1 0 0 1 24 1617 )" />
  </g>
</svg>