<?xml version="1.0" encoding="UTF-8"?><svg id="Camada_2" xmlns="http://www.w3.org/2000/svg" viewBox="0 0 172.58 152.23"><defs><style>.cls-1{fill:#fff;}</style></defs><path class="cls-1" d="M115.87,149.2c76.39-19.4,48.08-32.33,37.05-34.52,28.68,1.49,4.77-35.38,.11-44.75,0,0,4.81-6.89,5.85-8.77,29.74-53.82,8.77-90.62-40.92-29.23,0,0-33.24-14.42-62.48,.2C7.09-28.84-21.02,5.8,19.29,69.97c0,0-30.67,46.86,.82,44.42-45.25,16.45,27.86,32.39,32.71,33.6,24.25,6.06,41.23,4.85,63.05,1.21Zm-59.9-29.1c-5.59,0-10.12-4.85-10.12-10.83s4.53-10.83,10.12-10.83,10.12,4.85,10.12,10.83-4.53,10.83-10.12,10.83Zm38.61,22.27c-4.62-.32-6.96-2.86-8.12-5.67-1.17,2.79-3.5,5.32-8.11,5.64,0,0-9.84,.99-12.42-9.15,.23-1.73,1.41-1.24,2.11-.25,2.56,6.54,14.28,11.22,16.86-.2-6.45-4.14-6.46-8.81-6.45-9.3v-.04c0-2.4,1.71-4.6,4.29-4.6,2.05,0,3.23,1.49,3.64,2.89,.4-1.4,1.59-2.89,3.64-2.89,2.58,0,4.29,2.2,4.29,4.6v.04c.01,.48-.01,5.08-6.3,9.2,2.52,11.57,14.31,6.88,16.88,.32,.7-.99,1.87-1.48,2.11,.25-2.58,10.14-12.42,9.15-12.42,9.15Zm21.86-22.27c-5.59,0-10.12-4.85-10.12-10.83s4.53-10.83,10.12-10.83,10.12,4.85,10.12,10.83-4.53,10.83-10.12,10.83Z"/></svg>