<?xml version="1.0" encoding="utf-8"?>
<svg version="1.1" xmlns:xlink="http://www.w3.org/1999/xlink" width="19px" height="32px" xmlns="http://www.w3.org/2000/svg">
  <g transform="matrix(1 0 0 1 -31 -3016 )">
    <path d="M 13.986111111111112 0  C 16.141203703703706 0  17.8125 0.07692307692307665  19 0.23076923076922995  L 19 5.307692307692307  L 15.547453703703704 5.307692307692307  C 14.286651234567904 5.307692307692307  13.436342592592593 5.53846153846154  12.996527777777779 6  C 12.556712962962964 6.46153846153846  12.336805555555555 7.153846153846153  12.336805555555555 8.076923076923077  L 12.336805555555555 11.71153846153846  L 18.78009259259259 11.71153846153846  L 17.922453703703706 17.403846153846153  L 12 17.403846153846153  L 12 32  L 5.607638888888889 32  L 5.607638888888889 17.403846153846153  L 0 17.403846153846153  L 0 11.71153846153846  L 5.607638888888889 11.71153846153846  L 5.607638888888889 7.51923076923077  C 5.607638888888889 5.134615384615383  6.369984567901235 3.285256410256409  7.894675925925926 1.9711538461538467  C 9.419367283950619 0.6570512820512846  11.449845679012347 0  13.986111111111112 0  Z " fill-rule="nonzero" fill="#ff7e00" stroke="none" transform="matrix(1 0 0 1 31 3016 )" />
  </g>
</svg>