<?xml version="1.0" encoding="utf-8"?>
<svg version="1.1" xmlns:xlink="http://www.w3.org/1999/xlink" width="26px" height="26px" xmlns="http://www.w3.org/2000/svg">
  <g transform="matrix(1 0 0 1 -409 -31 )">
    <path d="M 25.678385416666668 21.185937499999998  C 25.892795138888886 21.44322916666667  26 21.74791666666667  26 22.099999999999998  L 26 24.7  C 26 25.052083333333332  25.892795138888886 25.356770833333332  25.678385416666668 25.6140625  C 25.463975694444446 25.87135416666667  25.210069444444446 26  24.916666666666668 26  L 1.0833333333333333 26  C 0.7899305555555556 26  0.5360243055555556 25.87135416666667  0.3216145833333333 25.6140625  C 0.10720486111111112 25.356770833333332  0 25.052083333333332  0 24.7  L 0 22.099999999999998  C 0 21.74791666666667  0.10720486111111112 21.44322916666667  0.3216145833333333 21.185937499999998  C 0.5360243055555556 20.928645833333334  0.7899305555555556 20.8  1.0833333333333333 20.8  L 24.916666666666668 20.8  C 25.210069444444446 20.8  25.463975694444446 20.928645833333334  25.678385416666668 21.185937499999998  Z M 25.678385416666668 10.7859375  C 25.892795138888886 11.043229166666665  26 11.347916666666665  26 11.7  L 26 14.3  C 26 14.652083333333332  25.892795138888886 14.956770833333332  25.678385416666668 15.2140625  C 25.463975694444446 15.471354166666664  25.210069444444446 15.6  24.916666666666668 15.6  L 1.0833333333333333 15.6  C 0.7899305555555556 15.6  0.5360243055555556 15.471354166666664  0.3216145833333333 15.2140625  C 0.10720486111111112 14.956770833333332  0 14.652083333333332  0 14.3  L 0 11.7  C 0 11.347916666666665  0.10720486111111112 11.043229166666665  0.3216145833333333 10.7859375  C 0.5360243055555556 10.528645833333336  0.7899305555555556 10.4  1.0833333333333333 10.4  L 24.916666666666668 10.4  C 25.210069444444446 10.4  25.463975694444446 10.528645833333336  25.678385416666668 10.7859375  Z M 25.678385416666668 0.38593750000000115  C 25.892795138888886 0.6432291666666647  26 0.9479166666666647  26 1.3000000000000012  L 26 3.9000000000000004  C 26 4.252083333333331  25.892795138888886 4.556770833333331  25.678385416666668 4.8140625  C 25.463975694444446 5.071354166666664  25.210069444444446 5.199999999999999  24.916666666666668 5.199999999999999  L 1.0833333333333333 5.199999999999999  C 0.7899305555555556 5.199999999999999  0.5360243055555556 5.071354166666664  0.3216145833333333 4.8140625  C 0.10720486111111112 4.556770833333331  0 4.252083333333331  0 3.9000000000000004  L 0 1.3000000000000012  C 0 0.9479166666666647  0.10720486111111112 0.6432291666666647  0.3216145833333333 0.38593750000000115  C 0.5360243055555556 0.1286458333333318  0.7899305555555556 0  1.0833333333333333 0  L 24.916666666666668 0  C 25.210069444444446 0  25.463975694444446 0.1286458333333318  25.678385416666668 0.38593750000000115  Z " fill-rule="nonzero" fill="#005159" stroke="none" transform="matrix(1 0 0 1 409 31 )" />
  </g>
</svg>