<?xml version="1.0" encoding="utf-8"?>
<svg version="1.1" xmlns:xlink="http://www.w3.org/1999/xlink" width="32px" height="32px" xmlns="http://www.w3.org/2000/svg">
  <g transform="matrix(1 0 0 1 -23 -2963 )">
    <path d="M 19.770833333333332 19.770833333333336  C 20.8125 18.729166666666664  21.333333333333332 17.47222222222222  21.333333333333332 16  C 21.333333333333332 14.527777777777775  20.8125 13.270833333333332  19.770833333333332 12.229166666666668  C 18.729166666666668 11.1875  17.472222222222225 10.666666666666668  16 10.666666666666668  C 14.527777777777779 10.666666666666668  13.270833333333334 11.1875  12.229166666666666 12.229166666666668  C 11.1875 13.270833333333332  10.666666666666666 14.527777777777775  10.666666666666666 16  C 10.666666666666666 17.47222222222222  11.1875 18.729166666666664  12.229166666666666 19.770833333333336  C 13.270833333333334 20.8125  14.527777777777779 21.333333333333336  16 21.333333333333336  C 17.472222222222225 21.333333333333336  18.729166666666668 20.8125  19.770833333333332 19.770833333333336  Z M 21.8125 10.1875  C 23.409722222222225 11.784722222222218  24.208333333333332 13.722222222222218  24.208333333333332 16  C 24.208333333333332 18.27777777777778  23.409722222222225 20.21527777777778  21.8125 21.8125  C 20.21527777777778 23.40972222222222  18.27777777777778 24.208333333333332  16 24.208333333333332  C 13.722222222222223 24.208333333333332  11.784722222222223 23.40972222222222  10.1875 21.8125  C 8.590277777777779 20.21527777777778  7.791666666666667 18.27777777777778  7.791666666666667 16  C 7.791666666666667 13.722222222222218  8.590277777777779 11.784722222222218  10.1875 10.1875  C 11.784722222222223 8.590277777777775  13.722222222222223 7.791666666666668  16 7.791666666666668  C 18.27777777777778 7.791666666666668  20.21527777777778 8.590277777777775  21.8125 10.1875  Z M 25.895833333333332 6.104166666666668  C 26.270833333333332 6.479166666666668  26.458333333333332 6.930555555555554  26.458333333333332 7.458333333333332  C 26.458333333333332 7.986111111111111  26.270833333333332 8.4375  25.895833333333332 8.8125  C 25.520833333333332 9.1875  25.069444444444446 9.375  24.541666666666668 9.375  C 24.01388888888889 9.375  23.5625 9.1875  23.1875 8.8125  C 22.8125 8.4375  22.625 7.986111111111111  22.625 7.458333333333332  C 22.625 6.930555555555554  22.8125 6.479166666666668  23.1875 6.104166666666668  C 23.5625 5.729166666666668  24.01388888888889 5.541666666666668  24.541666666666668 5.541666666666668  C 25.069444444444446 5.541666666666668  25.520833333333332 5.729166666666668  25.895833333333332 6.104166666666668  Z M 17.59375 2.864583333333332  C 16.628472222222225 2.871527777777775  16.097222222222225 2.875  16 2.875  C 15.902777777777779 2.875  15.371527777777779 2.871527777777775  14.40625 2.864583333333332  C 13.440972222222223 2.8576388888888857  12.708333333333334 2.8576388888888857  12.208333333333334 2.864583333333332  C 11.708333333333334 2.871527777777775  11.038194444444445 2.8923611111111107  10.197916666666666 2.927083333333332  C 9.357638888888891 2.9618055555555536  8.642361111111112 3.03125  8.052083333333334 3.135416666666668  C 7.461805555555556 3.239583333333332  6.965277777777779 3.3680555555555536  6.5625 3.520833333333332  C 5.868055555555556 3.7986111111111107  5.256944444444445 4.201388888888886  4.729166666666667 4.729166666666668  C 4.201388888888889 5.256944444444443  3.798611111111111 5.868055555555554  3.5208333333333335 6.5625  C 3.368055555555556 6.965277777777775  3.2395833333333335 7.461805555555554  3.1354166666666665 8.052083333333332  C 3.03125 8.64236111111111  2.961805555555556 9.357638888888886  2.9270833333333335 10.197916666666668  C 2.892361111111111 11.038194444444443  2.871527777777778 11.708333333333332  2.8645833333333335 12.208333333333332  C 2.8576388888888893 12.708333333333332  2.8576388888888893 13.440972222222218  2.8645833333333335 14.40625  C 2.871527777777778 15.371527777777775  2.875 15.902777777777775  2.875 16  C 2.875 16.09722222222222  2.871527777777778 16.62847222222222  2.8645833333333335 17.59375  C 2.8576388888888893 18.55902777777778  2.8576388888888893 19.291666666666664  2.8645833333333335 19.791666666666664  C 2.871527777777778 20.291666666666664  2.892361111111111 20.96180555555555  2.9270833333333335 21.802083333333336  C 2.961805555555556 22.642361111111107  3.03125 23.357638888888886  3.1354166666666665 23.947916666666664  C 3.2395833333333335 24.538194444444443  3.368055555555556 25.034722222222218  3.5208333333333335 25.4375  C 3.798611111111111 26.131944444444443  4.201388888888889 26.743055555555557  4.729166666666667 27.270833333333332  C 5.256944444444445 27.79861111111111  5.868055555555556 28.20138888888889  6.5625 28.479166666666668  C 6.965277777777779 28.631944444444443  7.461805555555556 28.760416666666668  8.052083333333334 28.864583333333332  C 8.642361111111112 28.96875  9.357638888888891 29.038194444444443  10.197916666666666 29.072916666666668  C 11.038194444444445 29.10763888888889  11.708333333333334 29.128472222222225  12.208333333333334 29.135416666666668  C 12.708333333333334 29.14236111111111  13.440972222222223 29.14236111111111  14.40625 29.135416666666668  C 15.371527777777779 29.128472222222225  15.902777777777779 29.125  16 29.125  C 16.097222222222225 29.125  16.628472222222225 29.128472222222225  17.59375 29.135416666666668  C 18.55902777777778 29.14236111111111  19.291666666666668 29.14236111111111  19.791666666666668 29.135416666666668  C 20.291666666666668 29.128472222222225  20.961805555555557 29.10763888888889  21.802083333333332 29.072916666666668  C 22.642361111111114 29.038194444444443  23.35763888888889 28.96875  23.947916666666668 28.864583333333332  C 24.538194444444446 28.760416666666668  25.034722222222225 28.631944444444443  25.4375 28.479166666666668  C 26.131944444444446 28.20138888888889  26.743055555555557 27.79861111111111  27.270833333333332 27.270833333333332  C 27.798611111111114 26.743055555555557  28.20138888888889 26.131944444444443  28.479166666666668 25.4375  C 28.631944444444446 25.034722222222218  28.760416666666668 24.538194444444443  28.864583333333332 23.947916666666664  C 28.96875 23.357638888888886  29.038194444444446 22.642361111111107  29.072916666666668 21.802083333333336  C 29.10763888888889 20.96180555555555  29.128472222222225 20.291666666666664  29.135416666666668 19.791666666666664  C 29.142361111111114 19.291666666666664  29.142361111111114 18.55902777777778  29.135416666666668 17.59375  C 29.128472222222225 16.62847222222222  29.125 16.09722222222222  29.125 16  C 29.125 15.902777777777775  29.128472222222225 15.371527777777775  29.135416666666668 14.40625  C 29.142361111111114 13.440972222222218  29.142361111111114 12.708333333333332  29.135416666666668 12.208333333333332  C 29.128472222222225 11.708333333333332  29.10763888888889 11.038194444444443  29.072916666666668 10.197916666666668  C 29.038194444444446 9.357638888888886  28.96875 8.64236111111111  28.864583333333332 8.052083333333332  C 28.760416666666668 7.461805555555554  28.631944444444446 6.965277777777775  28.479166666666668 6.5625  C 28.20138888888889 5.868055555555554  27.798611111111114 5.256944444444443  27.270833333333332 4.729166666666668  C 26.743055555555557 4.201388888888886  26.131944444444446 3.7986111111111107  25.4375 3.520833333333332  C 25.034722222222225 3.3680555555555536  24.538194444444446 3.239583333333332  23.947916666666668 3.135416666666668  C 23.35763888888889 3.03125  22.642361111111114 2.9618055555555536  21.802083333333332 2.927083333333332  C 20.961805555555557 2.8923611111111107  20.291666666666668 2.871527777777775  19.791666666666668 2.864583333333332  C 19.291666666666668 2.8576388888888857  18.55902777777778 2.8576388888888857  17.59375 2.864583333333332  Z M 31.895833333333332 9.395833333333332  C 31.965277777777775 10.618055555555554  32 12.819444444444443  32 16  C 32 19.180555555555557  31.965277777777775 21.381944444444443  31.895833333333332 22.604166666666664  C 31.756944444444446 25.493055555555557  30.895833333333332 27.729166666666668  29.3125 29.3125  C 27.729166666666668 30.895833333333332  25.493055555555557 31.756944444444443  22.604166666666668 31.895833333333332  C 21.381944444444446 31.965277777777775  19.180555555555557 32  16 32  C 12.819444444444445 32  10.618055555555555 31.965277777777775  9.395833333333334 31.895833333333332  C 6.5069444444444455 31.756944444444443  4.270833333333334 30.895833333333332  2.6875 29.3125  C 1.1041666666666667 27.729166666666668  0.24305555555555558 25.493055555555557  0.10416666666666667 22.604166666666664  C 0.03472222222222222 21.381944444444443  0 19.180555555555557  0 16  C 0 12.819444444444443  0.03472222222222222 10.618055555555554  0.10416666666666667 9.395833333333332  C 0.24305555555555558 6.506944444444443  1.1041666666666667 4.270833333333332  2.6875 2.6875  C 4.270833333333334 1.1041666666666679  6.5069444444444455 0.24305555555555358  9.395833333333334 0.10416666666666785  C 10.618055555555555 0.03472222222221788  12.819444444444445 0  16 0  C 19.180555555555557 0  21.381944444444446 0.03472222222221788  22.604166666666668 0.10416666666666785  C 25.493055555555557 0.24305555555555358  27.729166666666668 1.1041666666666679  29.3125 2.6875  C 30.895833333333332 4.270833333333332  31.756944444444446 6.506944444444443  31.895833333333332 9.395833333333332  Z " fill-rule="nonzero" fill="#ff7e00" stroke="none" transform="matrix(1 0 0 1 23 2963 )" />
  </g>
</svg>