<?xml version="1.0" encoding="utf-8"?>
<svg version="1.1" xmlns:xlink="http://www.w3.org/1999/xlink" width="35px" height="35px" xmlns="http://www.w3.org/2000/svg">
  <g transform="matrix(1 0 0 1 -22 -2906 )">
    <path d="M 21.259765625 20.360142118863052  C 21.852213541666668 19.62909130060293  22.24717881944445 19.26356589147287  22.444661458333332 19.26356589147287  C 22.64214409722222 19.26356589147287  23.382703993055557 19.59517657192076  24.666341145833332 20.25839793281654  C 25.949978298611114 20.921619293712315  26.629774305555557 21.32105943152455  26.705729166666668 21.456718346253233  C 26.736111111111114 21.532084409991384  26.751302083333332 21.645133505598622  26.751302083333332 21.79586563307494  C 26.751302083333332 22.293281653746767  26.62217881944445 22.866063738156758  26.363932291666668 23.51421188630491  C 26.120876736111114 24.10206718346253  25.58159722222222 24.59571490094746  24.74609375 24.995155038759687  C 23.910590277777782 25.394595176571915  23.135850694444446 25.594315245478036  22.421875 25.594315245478036  C 21.555989583333336 25.594315245478036  20.11284722222222 25.12704565030146  18.092447916666668 24.192506459948323  C 16.60373263888889 23.51421188630491  15.3125 22.624892334194655  14.21875 21.524547803617573  C 13.125 20.424203273040483  12.000868055555557 19.029931093884578  10.846354166666666 17.34173126614987  C 9.752604166666666 15.728897502153313  9.213324652777779 14.266795865633076  9.228515625 12.955426356589147  L 9.228515625 12.774547803617569  C 9.274088541666668 11.402885443583115  9.836154513888891 10.212101636520238  10.914713541666666 9.202196382428939  C 11.279296875 8.870585701981048  11.674262152777779 8.704780361757104  12.099609375 8.704780361757104  C 12.190755208333334 8.704780361757104  12.327473958333334 8.71608527131783  12.509765625 8.738695090439276  C 12.692057291666666 8.761304909560724  12.836371527777779 8.772609819121445  12.942708333333334 8.772609819121445  C 13.231336805555557 8.772609819121445  13.4326171875 8.821597760551247  13.546549479166666 8.919573643410853  C 13.660481770833334 9.017549526270455  13.778211805555557 9.224806201550388  13.899739583333334 9.541343669250645  C 14.02126736111111 9.84280792420327  14.271918402777779 10.506029285099048  14.651692708333334 11.531007751937986  C 15.031467013888891 12.555986218776916  15.221354166666666 13.12123169681309  15.221354166666666 13.226744186046512  C 15.221354166666666 13.543281653746767  14.959309895833334 13.97663652024117  14.435221354166666 14.526808785529715  C 13.9111328125 15.076981050818256  13.649088541666666 15.427433247200687  13.649088541666666 15.578165374677004  C 13.649088541666666 15.683677863910422  13.687065972222225 15.796726959517654  13.763020833333334 15.917312661498707  C 14.279513888888891 17.017657192075795  15.054253472222225 18.05017226528854  16.087239583333336 19.014857881136948  C 16.93793402777778 19.813738156761413  18.084852430555557 20.574935400516797  19.527994791666668 21.2984496124031  C 19.710286458333332 21.403962101636516  19.87738715277778 21.456718346253233  20.029296875 21.456718346253233  C 20.257161458333336 21.456718346253233  20.667317708333336 21.091192937123168  21.259765625 20.360142118863052  Z M 9.957682291666666 28.895348837209305  C 12.357855902777779 30.462962962962962  14.978298611111109 31.24677002583979  17.819010416666668 31.24677002583979  C 19.74826388888889 31.24677002583979  21.59776475694445 30.869939707149005  23.367513020833332 30.11627906976744  C 25.13726128472222 29.362618432385876  26.66015625 28.352713178294575  27.936197916666668 27.08656330749354  C 29.212239583333332 25.820413436692508  30.23003472222222 24.30932385874246  30.989583333333332 22.553294573643413  C 31.74913194444445 20.797265288544356  32.12890625 18.962101636520238  32.12890625 17.047803617571063  C 32.12890625 15.133505598621877  31.74913194444445 13.298341946597759  30.989583333333332 11.542312661498707  C 30.23003472222222 9.786283376399654  29.212239583333332 8.275193798449612  27.936197916666668 7.0090439276485785  C 26.66015625 5.742894056847545  25.13726128472222 4.732988802756243  23.367513020833332 3.9793281653746777  C 21.59776475694445 3.2256675279931053  19.74826388888889 2.8488372093023266  17.819010416666668 2.8488372093023266  C 15.889756944444445 2.8488372093023266  14.040256076388891 3.2256675279931053  12.2705078125 3.9793281653746777  C 10.50075954861111 4.732988802756243  8.977864583333334 5.742894056847545  7.701822916666667 7.0090439276485785  C 6.42578125 8.275193798449612  5.407986111111112 9.786283376399654  4.6484375 11.542312661498707  C 3.8888888888888893 13.298341946597759  3.5091145833333335 15.133505598621877  3.5091145833333335 17.047803617571063  C 3.5091145833333335 20.107665805340222  4.420572916666667 22.881136950904395  6.243489583333333 25.368217054263564  L 4.443359375 30.636304909560724  L 9.957682291666666 28.895348837209305  Z M 11.153971354166666 1.3565891472868201  C 13.273111979166666 0.4521963824289388  15.494791666666666 0  17.819010416666668 0  C 20.143229166666668 0  22.364908854166668 0.4521963824289388  24.484049479166668 1.3565891472868201  C 26.603190104166668 2.2609819121447017  28.42990451388889 3.4743755383290242  29.964192708333332 4.996770025839792  C 31.498480902777782 6.519164513350559  32.72135416666667 8.331718346253233  33.6328125 10.434431524547806  C 34.54427083333333 12.537144702842374  35 14.741602067183461  35 17.047803617571063  C 35 19.354005167958654  34.54427083333333 21.558462532299743  33.6328125 23.661175710594314  C 32.72135416666667 25.76388888888889  31.498480902777782 27.576442721791555  29.964192708333332 29.098837209302328  C 28.42990451388889 30.62123169681309  26.603190104166668 31.834625322997418  24.484049479166668 32.7390180878553  C 22.364908854166668 33.64341085271318  20.143229166666668 34.09560723514212  17.819010416666668 34.09560723514212  C 14.856770833333334 34.09560723514212  12.084418402777779 33.387166236003445  9.501953125 31.970284237726098  L 0 35  L 3.0989583333333335 25.843023255813954  C 1.4583333333333333 23.159991386735573  0.6380208333333334 20.228251507321275  0.6380208333333334 17.047803617571063  C 0.6380208333333334 14.741602067183461  1.09375 12.537144702842374  2.005208333333333 10.434431524547806  C 2.9166666666666665 8.331718346253233  4.139539930555556 6.519164513350559  5.673828125 4.996770025839792  C 7.2081163194444455 3.4743755383290242  9.034830729166666 2.2609819121447017  11.153971354166666 1.3565891472868201  Z " fill-rule="nonzero" fill="#ff7e00" stroke="none" transform="matrix(1 0 0 1 22 2906 )" />
  </g>
</svg>