<?xml version="1.0" encoding="utf-8"?>
<svg version="1.1" xmlns:xlink="http://www.w3.org/1999/xlink" width="26px" height="26px" xmlns="http://www.w3.org/2000/svg">
  <g transform="matrix(1 0 0 1 -329 -31 )">
    <path d="M 9.40625 21.97443181818182  C 9.802083333333334 22.442234848484844  10 22.99621212121212  10 23.636363636363637  C 10 24.276515151515156  9.802083333333334 24.830492424242426  9.40625 25.298295454545453  C 9.010416666666668 25.766098484848484  8.541666666666668 26  8 26  C 7.458333333333334 26  6.989583333333335 25.766098484848484  6.59375 25.298295454545453  C 6.197916666666666 24.830492424242426  6 24.276515151515156  6 23.636363636363637  C 6 22.99621212121212  6.197916666666666 22.442234848484844  6.59375 21.97443181818182  C 6.989583333333335 21.50662878787879  7.458333333333334 21.27272727272727  8 21.27272727272727  C 8.541666666666668 21.27272727272727  9.010416666666668 21.50662878787879  9.40625 21.97443181818182  Z M 23.40625 21.97443181818182  C 23.802083333333332 22.442234848484844  24 22.99621212121212  24 23.636363636363637  C 24 24.276515151515156  23.802083333333332 24.830492424242426  23.40625 25.298295454545453  C 23.010416666666668 25.766098484848484  22.541666666666668 26  22 26  C 21.458333333333336 26  20.989583333333336 25.766098484848484  20.59375 25.298295454545453  C 20.197916666666668 24.830492424242426  20 24.276515151515156  20 23.636363636363637  C 20 22.99621212121212  20.197916666666668 22.442234848484844  20.59375 21.97443181818182  C 20.989583333333336 21.50662878787879  21.458333333333336 21.27272727272727  22 21.27272727272727  C 22.541666666666668 21.27272727272727  23.010416666666668 21.50662878787879  23.40625 21.97443181818182  Z M 25.703125 2.714488636363636  C 25.901041666666668 2.9483901515151487  26 3.2253787878787845  26 3.545454545454545  L 26 13  C 26 13.295454545454545  25.9140625 13.557054924242426  25.7421875 13.784801136363638  C 25.5703125 14.012547348484846  25.359375 14.144886363636362  25.109375 14.18181818181818  L 8.796875 16.43465909090909  C 8.932291666666668 17.173295454545453  9 17.604166666666664  9 17.72727272727273  C 9 17.92424242424242  8.875 18.31818181818182  8.625 19  L 23 19  C 23.270833333333336 18.90909090909091  23.505208333333336 19.026041666666664  23.703125 19.25994318181818  C 23.901041666666664 19.493844696969695  24 19.770833333333336  24 20.09090909090909  C 24 20.410984848484844  23.901041666666664 20.687973484848484  23.703125 20.921875  C 23.505208333333336 21.155776515151516  23.270833333333336 21.27272727272727  23 21  L 7 21  C 6.729166666666667 21.27272727272727  6.494791666666667 21.155776515151516  6.296875 20.921875  C 6.098958333333333 20.687973484848484  6 20.410984848484844  6 20.09090909090909  C 6 19.955492424242426  6.041666666666666 19.76160037878788  6.125 19.509232954545453  C 6.208333333333334 19.256865530303028  6.291666666666667 19.03527462121212  6.375 18.84446022727273  C 6.458333333333334 18.65364583333333  6.5703125 18.40743371212121  6.7109375 18.10582386363636  C 6.851562500000001 17.80421401515151  6.932291666666667 17.622632575757574  6.953125000000001 17.561079545454547  L 4.1875 2.363636363636364  L 1 2.363636363636364  C 0.7291666666666667 2.363636363636364  0.49479166666666674 2.2466856060606037  0.296875 2.0127840909090904  C 0.09895833333333333 1.7788825757575744  0 1.5018939393939388  0 1.1818181818181808  C 0 0.8617424242424228  0.09895833333333333 0.5847537878787843  0.296875 0.35085227272727404  C 0.49479166666666674 0.11695075757575513  0.7291666666666667 0  1 0  L 5 0  C 5.166666666666667 0  5.315104166666667 0.04000946969696795  5.4453125 0.12002840909090962  C 5.575520833333334 0.2000473484848484  5.677083333333334 0.2954545454545452  5.75 0.40625  C 5.822916666666667 0.5170454545454548  5.890625 0.6678503787878747  5.953125 0.858664772727274  C 6.015625000000001 1.0494791666666647  6.057291666666668 1.2095170454545452  6.078125 1.3387784090909096  C 6.098958333333334 1.468039772727274  6.127604166666667 1.64962121212121  6.1640625 1.883522727272726  C 6.200520833333334 2.117424242424239  6.223958333333334 2.2774621212121193  6.234375 2.363636363636364  L 25 2.363636363636364  C 25.270833333333336 2.363636363636364  25.505208333333336 2.4805871212121193  25.703125 2.714488636363636  Z " fill-rule="nonzero" fill="#005159" stroke="none" transform="matrix(1 0 0 1 329 31 )" />
  </g>
</svg>