<?xml version="1.0" encoding="utf-8"?>
<svg version="1.1" xmlns:xlink="http://www.w3.org/1999/xlink" width="26px" height="26px" xmlns="http://www.w3.org/2000/svg">
  <g transform="matrix(1 0 0 1 -369 -31 )">
    <path d="M 7.950892857142858 1.0301339285714282  C 9.55654761904762 0.34337797619047605  11.239583333333334 0  13 0  C 14.760416666666668 0  16.443452380952383 0.34337797619047605  18.049107142857142 1.0301339285714282  C 19.65476190476191 1.7168898809523803  21.037946428571427 2.640625  22.198660714285715 3.8013392857142847  C 23.359375000000004 4.962053571428572  24.283110119047624 6.345238095238093  24.969866071428573 7.950892857142856  C 25.656622023809526 9.556547619047617  26 11.239583333333332  26 13  C 26 14.750744047619047  25.659040178571427 16.428943452380953  24.977120535714285 18.03459821428571  C 24.295200892857142 19.640252976190478  23.373883928571427 21.0234375  22.213169642857142 22.18415178571429  C 21.052455357142858 23.344866071428573  19.669270833333336 24.27101934523809  18.063616071428573 24.962611607142858  C 16.45796130952381 25.65420386904762  14.770089285714285 26  13 26  C 11.229910714285714 26  9.542038690476192 25.656622023809526  7.936383928571428 24.969866071428573  C 6.330729166666667 24.28311011904762  4.9499627976190474 23.35695684523809  3.794084821428571 22.19140625  C 2.638206845238095 21.025855654761905  1.716889880952381 19.64267113095238  1.0301339285714286 18.041852678571427  C 0.34337797619047616 16.441034226190474  0 14.760416666666664  0 13  C 0 11.239583333333332  0.34337797619047616 9.556547619047617  1.0301339285714286 7.950892857142856  C 1.716889880952381 6.345238095238093  2.640625 4.962053571428572  3.801339285714286 3.8013392857142847  C 4.962053571428571 2.640625  6.345238095238096 1.7168898809523803  7.950892857142858 1.0301339285714282  Z M 17.541294642857142 14.857142857142856  C 19.862723214285715 14.857142857142856  21.342633928571427 16.438616071428573  21.981026785714285 19.6015625  C 23.422247023809526 17.618675595238095  24.142857142857142 15.418154761904761  24.142857142857142 13  C 24.142857142857142 11.491071428571429  23.847842261904763 10.049851190476188  23.2578125 8.676339285714285  C 22.66778273809524 7.3028273809523805  21.87462797619048 6.117931547619045  20.878348214285715 5.121651785714285  C 19.882068452380956 4.125372023809524  18.69717261904762 3.3322172619047605  17.323660714285715 2.7421875  C 15.950148809523812 2.1521577380952364  14.508928571428571 1.8571428571428563  13 1.8571428571428563  C 11.491071428571429 1.8571428571428563  10.049851190476192 2.1521577380952364  8.676339285714286 2.7421875  C 7.302827380952381 3.3322172619047605  6.117931547619048 4.125372023809524  5.121651785714286 5.121651785714285  C 4.125372023809525 6.117931547619045  3.332217261904762 7.3028273809523805  2.7421875 8.676339285714285  C 2.1521577380952386 10.049851190476188  1.857142857142857 11.491071428571429  1.857142857142857 13  C 1.857142857142857 15.418154761904761  2.5777529761904763 17.618675595238095  4.018973214285714 19.6015625  C 4.657366071428571 16.438616071428573  6.137276785714286 14.857142857142856  8.458705357142858 14.857142857142856  C 9.725818452380954 16.095238095238095  11.239583333333334 16.71428571428571  13 16.71428571428571  C 14.760416666666668 16.71428571428571  16.274181547619047 16.095238095238095  17.541294642857142 14.857142857142856  Z M 16.939174107142858 14.153459821428571  C 18.02734375 13.065290178571429  18.571428571428573 11.752232142857144  18.571428571428573 10.214285714285715  C 18.571428571428573 8.676339285714285  18.02734375 7.36328125  16.939174107142858 6.275111607142856  C 15.851004464285715 5.186941964285715  14.537946428571429 4.642857142857144  13 4.642857142857144  C 11.462053571428571 4.642857142857144  10.148995535714286 5.186941964285715  9.060825892857142 6.275111607142856  C 7.97265625 7.36328125  7.428571428571428 8.676339285714285  7.428571428571428 10.214285714285715  C 7.428571428571428 11.752232142857144  7.97265625 13.065290178571429  9.060825892857142 14.153459821428571  C 10.148995535714286 15.241629464285712  11.462053571428571 15.785714285714288  13 15.785714285714288  C 14.537946428571429 15.785714285714288  15.851004464285715 15.241629464285712  16.939174107142858 14.153459821428571  Z " fill-rule="nonzero" fill="#005159" stroke="none" transform="matrix(1 0 0 1 369 31 )" />
  </g>
</svg>