<?xml version="1.0" encoding="utf-8"?>
<svg version="1.1" xmlns:xlink="http://www.w3.org/1999/xlink" width="33px" height="28px" xmlns="http://www.w3.org/2000/svg">
  <g transform="matrix(1 0 0 1 -304 -2911 )">
    <path d="M 31.158482142857142 10.758522727272728  C 31.85825892857143 10.241477272727272  32.472098214285715 9.664772727272728  33 9.02840909090909  L 33 24.818181818181817  C 33 25.693181818181817  32.71149553571429 26.44223484848485  32.134486607142854 27.06534090909091  C 31.557477678571434 27.68844696969697  30.863839285714292 28  30.053571428571427 28  L 2.9464285714285716 28  C 2.1361607142857144 28  1.4425223214285716 27.68844696969697  0.865513392857143 27.06534090909091  C 0.2885044642857144 26.44223484848485  0 25.693181818181817  0 24.818181818181817  L 0 9.02840909090909  C 0.5401785714285716 9.678030303030301  1.1601562500000002 10.254734848484844  1.8599330357142858 10.758522727272728  C 6.304129464285715 14.019886363636363  9.354910714285714 16.306818181818183  11.012276785714286 17.619318181818183  C 11.712053571428571 18.176136363636363  12.279854910714286 18.61032196969697  12.715680803571429 18.921875  C 13.151506696428573 19.233428030303028  13.731584821428573 19.551609848484848  14.455915178571429 19.876420454545457  C 15.180245535714286 20.20123106060606  15.85546875 20.363636363636363  16.481584821428573 20.363636363636363  L 16.5 20.363636363636363  L 16.518415178571427 20.363636363636363  C 17.144531250000004 20.363636363636363  17.819754464285715 20.20123106060606  18.544084821428573 19.876420454545457  C 19.268415178571434 19.551609848484848  19.848493303571434 19.233428030303028  20.284319196428573 18.921875  C 20.720145089285715 18.61032196969697  21.287946428571427 18.176136363636363  21.987723214285715 17.619318181818183  C 24.07477678571429 15.988636363636363  27.131696428571434 13.701704545454547  31.158482142857142 10.758522727272728  Z M 32.125279017857146 0.9346590909090895  C 32.708426339285715 1.5577651515151492  33 2.306818181818182  33 3.181818181818182  C 33 4.2291666666666625  32.69921875 5.230113636363636  32.09765625 6.18465909090909  C 31.49609375 7.139204545454547  30.747209821428573 7.954545454545453  29.851004464285715 8.630681818181818  C 25.23493303571429 12.09090909090909  22.362165178571434 14.245265151515152  21.232700892857142 15.09375  C 21.10993303571429 15.18655303030303  20.849051339285715 15.388731060606059  20.450055803571427 15.700284090909093  C 20.051060267857146 16.011837121212118  19.719587053571434 16.26373106060606  19.455636160714285 16.455965909090907  C 19.191685267857142 16.648200757575754  18.872488839285715 16.863636363636363  18.498046875 17.102272727272727  C 18.12360491071429 17.340909090909093  17.770647321428573 17.519886363636363  17.439174107142858 17.639204545454543  C 17.107700892857142 17.758522727272727  16.80078125 17.818181818181817  16.518415178571427 17.818181818181817  L 16.5 17.818181818181817  L 16.481584821428573 17.818181818181817  C 16.19921875 17.818181818181817  15.892299107142858 17.758522727272727  15.560825892857142 17.639204545454543  C 15.229352678571429 17.519886363636363  14.876395089285715 17.340909090909093  14.501953125 17.102272727272727  C 14.127511160714286 16.863636363636363  13.808314732142858 16.648200757575754  13.544363839285714 16.455965909090907  C 13.280412946428573 16.26373106060606  12.948939732142858 16.011837121212118  12.549944196428571 15.700284090909093  C 12.150948660714286 15.388731060606059  11.890066964285717 15.18655303030303  11.767299107142858 15.09375  C 10.650111607142858 14.245265151515152  9.041852678571429 13.035511363636363  6.942522321428571 11.464488636363637  C 4.843191964285714 9.893465909090907  3.5848214285714293 8.948863636363633  3.1674107142857144 8.630681818181818  C 2.40625 8.073863636363633  1.688058035714286 7.308238636363636  1.0128348214285716 6.333806818181818  C 0.33761160714285726 5.359375  0 4.454545454545453  0 3.619318181818182  C 0 2.5852272727272716  0.25474330357142866 1.7234848484848446  0.7642299107142858 1.0340909090909105  C 1.2737165178571432 0.34469696969696706  2.001116071428572 0  2.9464285714285716 0  L 30.053571428571427 0  C 30.8515625 0  31.542131696428573 0.3115530303030267  32.125279017857146 0.9346590909090895  Z " fill-rule="nonzero" fill="#ff7e00" stroke="none" transform="matrix(1 0 0 1 304 2911 )" />
  </g>
</svg>