<?xml version="1.0" encoding="utf-8"?>
<svg version="1.1" xmlns:xlink="http://www.w3.org/1999/xlink" width="15px" height="23px" xmlns="http://www.w3.org/2000/svg">
  <g transform="matrix(1 0 0 1 -27 -390 )">
    <path d="M 10.1513671875 10.376953125  C 10.8837890625 9.628255208333332  11.25 8.72482638888889  11.25 7.666666666666668  C 11.25 6.608506944444443  10.8837890625 5.705078125  10.1513671875 4.956380208333332  C 9.4189453125 4.207682291666668  8.535156250000002 3.8333333333333326  7.5 3.8333333333333326  C 6.464843750000001 3.8333333333333326  5.5810546875 4.207682291666668  4.8486328125 4.956380208333332  C 4.1162109375 5.705078125  3.75 6.608506944444443  3.75 7.666666666666668  C 3.75 8.72482638888889  4.1162109375 9.628255208333332  4.8486328125 10.376953125  C 5.5810546875 11.125651041666668  6.464843750000001 11.5  7.5 11.5  C 8.535156250000002 11.5  9.4189453125 11.125651041666668  10.1513671875 10.376953125  Z M 12.802734375 2.24609375  C 14.267578125 3.7434895833333326  15 5.550347222222219  15 7.666666666666668  C 15 8.754774305555554  14.8388671875 9.64822048611111  14.5166015625 10.347005208333332  L 9.1845703125 21.936848958333332  C 9.0283203125 22.266276041666668  8.79638671875 22.525824652777775  8.48876953125 22.715494791666668  C 8.18115234375 22.905164930555557  7.8515625 23  7.5 23  C 7.1484375 23  6.81884765625 22.905164930555557  6.51123046875 22.715494791666668  C 6.20361328125 22.525824652777775  5.9765625 22.266276041666668  5.830078125 21.936848958333332  L 0.4833984375 10.347005208333332  C 0.1611328125 9.64822048611111  0 8.754774305555554  0 7.666666666666668  C 0 5.550347222222219  0.732421875 3.7434895833333326  2.197265625 2.24609375  C 3.6621093750000004 0.7486979166666675  5.4296875 0  7.5 0  C 9.5703125 0  11.337890625 0.7486979166666675  12.802734375 2.24609375  Z " fill-rule="nonzero" fill="#aaaaaa" stroke="none" transform="matrix(1 0 0 1 27 390 )" />
  </g>
</svg>