<?xml version="1.0" encoding="utf-8"?>
<svg version="1.1" xmlns:xlink="http://www.w3.org/1999/xlink" width="9px" height="31px" xmlns="http://www.w3.org/2000/svg">
  <g transform="matrix(1 0 0 1 -215 -1614 )">
    <path d="M 8.34375 23.161931818181817  C 8.781249999999998 23.57291666666666  9 24.071969696969695  9 24.659090909090907  L 9 28.886363636363637  C 9 29.47348484848485  8.781249999999998 29.972537878787875  8.34375 30.383522727272727  C 7.906250000000001 30.794507575757578  7.375000000000001 31  6.75 31  L 2.25 31  C 1.6250000000000002 31  1.09375 30.794507575757578  0.65625 30.383522727272727  C 0.21874999999999997 29.972537878787875  0 29.47348484848485  0 28.886363636363637  L 0 24.659090909090907  C 0 24.071969696969695  0.21874999999999997 23.57291666666666  0.65625 23.161931818181817  C 1.09375 22.750946969696972  1.6250000000000002 22.545454545454547  2.25 22.545454545454547  L 6.75 22.545454545454547  C 7.375000000000001 22.545454545454547  7.906250000000001 22.750946969696972  8.34375 23.161931818181817  Z M 8.34375 11.889204545454547  C 8.781249999999998 12.30018939393939  9 12.799242424242424  9 13.386363636363635  L 9 17.613636363636363  C 9 18.200757575757578  8.781249999999998 18.699810606060606  8.34375 19.110795454545453  C 7.906250000000001 19.5217803030303  7.375000000000001 19.727272727272727  6.75 19.727272727272727  L 2.25 19.727272727272727  C 1.6250000000000002 19.727272727272727  1.09375 19.5217803030303  0.65625 19.110795454545453  C 0.21874999999999997 18.699810606060606  0 18.200757575757578  0 17.613636363636363  L 0 13.386363636363635  C 0 12.799242424242424  0.21874999999999997 12.30018939393939  0.65625 11.889204545454547  C 1.09375 11.478219696969695  1.6250000000000002 11.272727272727273  2.25 11.272727272727273  L 6.75 11.272727272727273  C 7.375000000000001 11.272727272727273  7.906250000000001 11.478219696969695  8.34375 11.889204545454547  Z M 8.34375 0.616477272727273  C 8.781249999999998 1.0274621212121193  9 1.52651515151515  9 2.113636363636365  L 9 6.340909090909092  C 9 6.9280303030303  8.781249999999998 7.427083333333331  8.34375 7.838068181818181  C 7.906250000000001 8.249053030303028  7.375000000000001 8.454545454545453  6.75 8.454545454545453  L 2.25 8.454545454545453  C 1.6250000000000002 8.454545454545453  1.09375 8.249053030303028  0.65625 7.838068181818181  C 0.21874999999999997 7.427083333333331  0 6.9280303030303  0 6.340909090909092  L 0 2.113636363636365  C 0 1.52651515151515  0.21874999999999997 1.0274621212121193  0.65625 0.616477272727273  C 1.09375 0.2054924242424232  1.6250000000000002 0  2.25 0  L 6.75 0  C 7.375000000000001 0  7.906250000000001 0.2054924242424232  8.34375 0.616477272727273  Z " fill-rule="nonzero" fill="#000000" stroke="none" transform="matrix(1 0 0 1 215 1614 )" />
  </g>
</svg>