<?xml version="1.0" encoding="utf-8"?>
<svg version="1.1" xmlns:xlink="http://www.w3.org/1999/xlink" width="28px" height="25px" xmlns="http://www.w3.org/2000/svg">
  <g transform="matrix(1 0 0 1 -366 -528 )">
    <path d="M 12.620192307692308 3.1331380208333344  C 12.956730769230772 3.9740668402777763  13.125000000000002 4.796006944444442  13.125 5.598958333333334  C 13.125000000000002 6.25  13.018429487179489 6.865776909722221  12.805288461538462 7.4462890625  C 12.592147435897438 8.026801215277777  12.238782051282051 8.528645833333332  11.745192307692308 8.951822916666666  C 11.251602564102566 9.374999999999996  10.662660256410259 9.586588541666666  9.978365384615383 9.586588541666666  C 9.125801282051283 9.586588541666666  8.351762820512821 9.274631076388888  7.65625 8.650716145833334  C 6.960737179487181 8.026801215277777  6.44471153846154 7.291666666666666  6.108173076923077 6.4453125  C 5.771634615384615 5.598958333333334  5.603365384615385 4.779730902777776  5.603365384615385 3.9876302083333344  C 5.603365384615385 3.3365885416666656  5.709935897435898 2.720811631944442  5.923076923076923 2.1402994791666656  C 6.136217948717949 1.5597873263888866  6.489583333333334 1.0579427083333344  6.983173076923077 0.634765625  C 7.476762820512821 0.21158854166666574  8.06570512820513 0  8.75 0  C 9.613782051282051 0  10.390625 0.31195746527777624  11.080528846153847 0.9358723958333343  C 11.770432692307692 1.5597873263888866  12.283653846153847 2.2922092013888866  12.620192307692308 3.1331380208333344  Z M 6.78125 10.978190104166666  C 7.173878205128205 11.829969618055555  7.370192307692308 12.657335069444443  7.370192307692308 13.460286458333332  C 7.370192307692308 14.32834201388889  7.134615384615386 15.082465277777779  6.663461538461538 15.72265625  C 6.192307692307692 16.36284722222222  5.5248397435897445 16.682942708333332  4.661057692307692 16.682942708333332  C 3.8084935897435903 16.682942708333332  3.014823717948718 16.3818359375  2.280048076923077 15.779622395833332  C 1.5452724358974361 15.177408854166668  0.9815705128205128 14.453125  0.5889423076923077 13.606770833333332  C 0.19631410256410253 12.760416666666668  0 11.935763888888888  0 11.1328125  C 0 10.264756944444443  0.23557692307692307 9.507921006944443  0.7067307692307693 8.8623046875  C 1.1778846153846154 8.216688368055555  1.845352564102564 7.893880208333334  2.7091346153846154 7.893880208333334  C 3.5616987179487185 7.893880208333334  4.35536858974359 8.194986979166666  5.090144230769231 8.797200520833334  C 5.824919871794872 9.3994140625  6.388621794871796 10.126410590277777  6.78125 10.978190104166666  Z M 10.752403846153847 13.981119791666668  C 11.919070512820513 13.340928819444443  13.001602564102566 13.020833333333332  14 13.020833333333332  C 15.32371794871795 13.020833333333332  16.75400641025641 13.5498046875  18.290865384615383 14.607747395833332  C 19.82772435897436 15.665690104166668  21.11217948717949 16.951497395833332  22.144230769230766 18.465169270833332  C 23.17628205128205 19.978841145833336  23.692307692307693 21.359592013888886  23.692307692307693 22.607421875  C 23.692307692307693 23.106553819444446  23.59695512820513 23.521592881944446  23.40625 23.8525390625  C 23.215544871794876 24.183485243055554  22.943509615384617 24.427625868055554  22.590144230769234 24.5849609375  C 22.236778846153847 24.742296006944446  21.875 24.850802951388886  21.504807692307693 24.910481770833336  C 21.134615384615383 24.97016059027778  20.708333333333336 25  20.22596153846154 25  C 19.463141025641026 25  18.411458333333336 24.755859375  17.07091346153846 24.267578125  C 15.73036858974359 23.779296875  14.706730769230768 23.53515625  14 23.53515625  C 13.259615384615383 23.53515625  12.179887820512821 23.776584201388886  10.760817307692308 24.259440104166664  C 9.341746794871796 24.742296006944446  8.217147435897438 24.983723958333336  7.38701923076923 24.983723958333336  C 5.334134615384615 24.983723958333336  4.307692307692308 24.191623263888886  4.307692307692308 22.607421875  C 4.307692307692308 21.67426215277778  4.621794871794872 20.63530815972222  5.25 19.490559895833336  C 5.8782051282051295 18.345811631944443  6.660657051282052 17.301432291666668  7.59735576923077 16.357421875  C 8.534054487179487 15.413411458333332  9.58573717948718 14.62131076388889  10.752403846153847 13.981119791666668  Z M 20.34375 8.650716145833334  C 19.648237179487182 9.274631076388888  18.87419871794872 9.586588541666666  18.021634615384617 9.586588541666666  C 17.337339743589745 9.586588541666666  16.748397435897438 9.374999999999996  16.254807692307693 8.951822916666666  C 15.76121794871795 8.528645833333332  15.407852564102566 8.026801215277777  15.19471153846154 7.4462890625  C 14.981570512820513 6.865776909722221  14.875 6.25  14.875 5.598958333333334  C 14.875 4.796006944444442  15.043269230769232 3.9740668402777763  15.379807692307692 3.1331380208333344  C 15.716346153846153 2.2922092013888866  16.229567307692307 1.5597873263888866  16.919471153846153 0.9358723958333343  C 17.609375 0.31195746527777624  18.38621794871795 0  19.25 0  C 19.934294871794876 0  20.523237179487182 0.21158854166666574  21.016826923076923 0.634765625  C 21.510416666666668 1.0579427083333344  21.86378205128205 1.5597873263888866  22.076923076923077 2.1402994791666656  C 22.290064102564102 2.720811631944442  22.396634615384617 3.3365885416666656  22.396634615384617 3.9876302083333344  C 22.396634615384617 4.779730902777776  22.228365384615383 5.598958333333334  21.891826923076923 6.4453125  C 21.55528846153846 7.291666666666666  21.039262820512825 8.026801215277777  20.34375 8.650716145833334  Z M 22.909855769230766 8.797200520833334  C 23.64463141025641 8.194986979166666  24.438301282051285 7.893880208333334  25.290865384615383 7.893880208333334  C 26.154647435897438 7.893880208333334  26.822115384615383 8.216688368055555  27.293269230769234 8.8623046875  C 27.764423076923077 9.507921006944443  28 10.264756944444443  28 11.1328125  C 28 11.935763888888888  27.8036858974359 12.760416666666668  27.411057692307693 13.606770833333332  C 27.01842948717949 14.453125  26.454727564102566 15.177408854166668  25.719951923076923 15.779622395833332  C 24.985176282051285 16.3818359375  24.19150641025641 16.682942708333332  23.338942307692307 16.682942708333332  C 22.47516025641026 16.682942708333332  21.807692307692307 16.36284722222222  21.33653846153846 15.72265625  C 20.865384615384617 15.082465277777779  20.629807692307693 14.32834201388889  20.629807692307693 13.460286458333332  C 20.629807692307693 12.657335069444443  20.826121794871796 11.829969618055555  21.21875 10.978190104166666  C 21.611378205128208 10.126410590277777  22.17508012820513 9.3994140625  22.909855769230766 8.797200520833334  Z " fill-rule="nonzero" fill="#025454" stroke="none" transform="matrix(1 0 0 1 366 528 )" />
  </g>
</svg>