<?xml version="1.0" encoding="utf-8"?>
<svg version="1.1" xmlns:xlink="http://www.w3.org/1999/xlink" width="26px" height="15px" xmlns="http://www.w3.org/2000/svg">
  <g transform="matrix(1 0 0 1 -307 -816 )">
    <path d="M 25.739478957915832 12.268041237113401  C 25.913159652638612 12.439862542955321  26 12.637457044673537  26 12.860824742268042  C 26 13.084192439862539  25.913159652638612 13.281786941580753  25.739478957915832 13.45360824742268  L 24.436873747494992 14.742268041237113  C 24.263193052772213 14.914089347079033  24.06346025384102 15  23.837675350701403 15  C 23.61189044756179 15  23.412157648630597 14.914089347079033  23.238476953907817 14.742268041237113  L 13 4.613402061855671  L 2.7615230460921842 14.742268041237113  C 2.5878423513694058 14.914089347079033  2.3881095524382103 15  2.162324649298597 15  C 1.9365397461589848 15  1.7368069472277894 14.914089347079033  1.56312625250501 14.742268041237113  L 0.2605210420841683 13.45360824742268  C 0.0868403473613897 13.281786941580753  0 13.084192439862539  0 12.860824742268042  C 0 12.637457044673537  0.0868403473613897 12.439862542955321  0.2605210420841683 12.268041237113401  L 12.400801603206412 0.25773195876288735  C 12.574482297929194 0.08591065292096023  12.77421509686039 0  13 0  C 13.225784903139614 0  13.42551770207081 0.08591065292096023  13.599198396793586 0.25773195876288735  L 25.739478957915832 12.268041237113401  Z " fill-rule="nonzero" fill="#000000" stroke="none" transform="matrix(1 0 0 1 307 816 )" />
  </g>
</svg>