<?xml version="1.0" encoding="utf-8"?>
<svg version="1.1" xmlns:xlink="http://www.w3.org/1999/xlink" width="26px" height="15px" xmlns="http://www.w3.org/2000/svg">
  <g transform="matrix(1 0 0 1 -412 -340 )">
    <path d="M 25.739478957915832 2.731958762886598  C 25.913159652638612 2.5601374570446778  26 2.362542955326462  26 2.139175257731958  C 26 1.9158075601374602  25.913159652638612 1.7182130584192463  25.739478957915832 1.546391752577319  L 24.436873747494992 0.25773195876288735  C 24.263193052772213 0.08591065292096689  24.06346025384102 0  23.837675350701403 0  C 23.61189044756179 0  23.412157648630597 0.08591065292096689  23.238476953907817 0.25773195876288735  L 13 10.38659793814433  L 2.7615230460921842 0.25773195876288735  C 2.5878423513694058 0.08591065292096689  2.3881095524382103 0  2.162324649298597 0  C 1.9365397461589848 0  1.7368069472277894 0.08591065292096689  1.56312625250501 0.25773195876288735  L 0.2605210420841683 1.546391752577319  C 0.0868403473613897 1.7182130584192463  0 1.9158075601374602  0 2.139175257731958  C 0 2.362542955326462  0.0868403473613897 2.5601374570446778  0.2605210420841683 2.731958762886598  L 12.400801603206412 14.742268041237113  C 12.574482297929194 14.91408934707904  12.77421509686039 15  13 15  C 13.225784903139614 15  13.42551770207081 14.91408934707904  13.599198396793586 14.742268041237113  L 25.739478957915832 2.731958762886598  Z " fill-rule="nonzero" fill="#000000" stroke="none" transform="matrix(1 0 0 1 412 340 )" />
  </g>
</svg>