<?xml version="1.0" encoding="utf-8"?>
<svg version="1.1" xmlns:xlink="http://www.w3.org/1999/xlink" width="26px" height="28px" xmlns="http://www.w3.org/2000/svg">
  <g transform="matrix(1 0 0 1 -354 -18 )">
    <path d="M 13 26.75  C 13.16666666666667 26.75  13.250000000000002 26.666666666666668  13.25 26.5  C 13.250000000000002 26.333333333333332  13.16666666666667 26.25  13 26.25  C 12.385416666666668 26.25  11.856770833333336 26.028645833333332  11.4140625 25.5859375  C 10.971354166666668 25.143229166666668  10.75 24.614583333333332  10.75 24  C 10.75 23.833333333333332  10.666666666666668 23.75  10.5 23.75  C 10.333333333333334 23.75  10.25 23.833333333333332  10.25 24  C 10.25 24.760416666666668  10.518229166666668 25.408854166666668  11.0546875 25.9453125  C 11.591145833333334 26.481770833333332  12.239583333333334 26.75  13 26.75  Z M 24.578125 20.625  C 25.005208333333336 21.104166666666668  25.479166666666668 21.5625  26 22  C 26.000000000000007 22.541666666666668  25.802083333333336 23.01041666666667  25.40625 23.40625  C 25.010416666666668 23.80208333333333  24.541666666666668 24  24 24  L 17 24  C 17 25.104166666666668  16.609375 26.046875  15.828125 26.828125  C 15.046875 27.609375  14.104166666666668 28  13 28  C 11.895833333333334 28  10.953125 27.609375  10.171875 26.828125  C 9.390625 26.046875  9 25.104166666666668  9 24  L 2 24  C 1.4583333333333335 24  0.9895833333333335 23.80208333333333  0.59375 23.40625  C 0.19791666666666674 23.01041666666667  0 22.541666666666668  0 22  C 0.5208333333333335 21.5625  0.994791666666667 21.104166666666668  1.421875 20.625  C 1.8489583333333337 20.145833333333332  2.291666666666667 19.5234375  2.75 18.7578125  C 3.208333333333334 17.9921875  3.5963541666666674 17.166666666666664  3.9140625 16.28125  C 4.231770833333334 15.395833333333332  4.4921875 14.322916666666668  4.6953125 13.062499999999998  C 4.8984375 11.802083333333332  5 10.447916666666663  5 9  C 5 7.416666666666665  5.609375 5.9453125  6.828125 4.585937499999998  C 8.046875 3.2265625  9.645833333333334 2.4010416666666647  11.625 2.109374999999999  C 11.541666666666668 1.9114583333333308  11.5 1.7083333333333335  11.5 1.5000000000000009  C 11.5 1.0833333333333326  11.645833333333334 0.7291666666666656  11.9375 0.4375  C 12.229166666666668 0.14583333333333437  12.583333333333334 0  13 0  C 13.416666666666668 0  13.770833333333336 0.14583333333333437  14.0625 0.4375  C 14.354166666666668 0.7291666666666656  14.5 1.0833333333333326  14.5 1.5000000000000009  C 14.5 1.7083333333333335  14.458333333333334 1.9114583333333308  14.375 2.109374999999999  C 16.354166666666668 2.4010416666666647  17.953125 3.2265625  19.171875 4.585937499999998  C 20.390625 5.9453125  21 7.416666666666665  21 9  C 21 10.447916666666663  21.1015625 11.802083333333332  21.3046875 13.062499999999998  C 21.5078125 14.322916666666668  21.768229166666668 15.395833333333332  22.0859375 16.28125  C 22.403645833333336 17.166666666666664  22.791666666666668 17.9921875  23.25 18.7578125  C 23.708333333333336 19.5234375  24.15104166666667 20.145833333333332  24.578125 20.625  Z " fill-rule="nonzero" fill="#005159" stroke="none" transform="matrix(1 0 0 1 354 18 )" />
  </g>
</svg>